<mxfile host="app.diagrams.net" agent="Mozilla/5.0 (Windows NT 10.0; Win64; x64) AppleWebKit/537.36 (KHTML, like Gecko) Chrome/134.0.0.0 Safari/537.36 Edg/134.0.0.0" version="26.1.0">
  <diagram name="Page-1" id="5VFF9CBySbuht9sGBKA5">
    <mxGraphModel dx="2510" dy="945" grid="1" gridSize="10" guides="1" tooltips="1" connect="1" arrows="1" fold="1" page="1" pageScale="1" pageWidth="850" pageHeight="1100" math="0" shadow="0">
      <root>
        <mxCell id="0" />
        <mxCell id="1" parent="0" />
        <mxCell id="HGiOl-FqE3d1iQW6nQIO-1" value="Lab Manager" style="shape=umlActor;verticalLabelPosition=bottom;verticalAlign=top;html=1;outlineConnect=0;" vertex="1" parent="1">
          <mxGeometry x="-90" y="770" width="30" height="60" as="geometry" />
        </mxCell>
        <mxCell id="HGiOl-FqE3d1iQW6nQIO-2" value="" style="rounded=0;whiteSpace=wrap;html=1;" vertex="1" parent="1">
          <mxGeometry x="120" y="110" width="590" height="1610" as="geometry" />
        </mxCell>
        <mxCell id="HGiOl-FqE3d1iQW6nQIO-3" value="Purchase Order Sub System" style="text;html=1;align=center;verticalAlign=middle;whiteSpace=wrap;rounded=0;" vertex="1" parent="1">
          <mxGeometry x="395" y="120" width="60" height="30" as="geometry" />
        </mxCell>
        <mxCell id="HGiOl-FqE3d1iQW6nQIO-4" value="Supplier" style="shape=umlActor;verticalLabelPosition=bottom;verticalAlign=top;html=1;outlineConnect=0;" vertex="1" parent="1">
          <mxGeometry x="-30" y="1630" width="30" height="60" as="geometry" />
        </mxCell>
        <mxCell id="HGiOl-FqE3d1iQW6nQIO-5" value="Create Purchase Order" style="ellipse;whiteSpace=wrap;html=1;" vertex="1" parent="1">
          <mxGeometry x="180" y="340" width="140" height="70" as="geometry" />
        </mxCell>
        <mxCell id="HGiOl-FqE3d1iQW6nQIO-6" value="Access Purchase Orders" style="ellipse;whiteSpace=wrap;html=1;" vertex="1" parent="1">
          <mxGeometry x="355" y="180" width="140" height="70" as="geometry" />
        </mxCell>
        <mxCell id="HGiOl-FqE3d1iQW6nQIO-7" value="Select Supplier" style="ellipse;whiteSpace=wrap;html=1;" vertex="1" parent="1">
          <mxGeometry x="355" y="430" width="140" height="70" as="geometry" />
        </mxCell>
        <mxCell id="HGiOl-FqE3d1iQW6nQIO-9" value="View Items List" style="ellipse;whiteSpace=wrap;html=1;" vertex="1" parent="1">
          <mxGeometry x="550" y="600" width="140" height="70" as="geometry" />
        </mxCell>
        <mxCell id="HGiOl-FqE3d1iQW6nQIO-10" value="Select Item" style="ellipse;whiteSpace=wrap;html=1;" vertex="1" parent="1">
          <mxGeometry x="355" y="670" width="140" height="70" as="geometry" />
        </mxCell>
        <mxCell id="HGiOl-FqE3d1iQW6nQIO-11" value="View Suppliers List" style="ellipse;whiteSpace=wrap;html=1;" vertex="1" parent="1">
          <mxGeometry x="550" y="360" width="140" height="70" as="geometry" />
        </mxCell>
        <mxCell id="HGiOl-FqE3d1iQW6nQIO-12" value="Create New Supplier" style="ellipse;whiteSpace=wrap;html=1;" vertex="1" parent="1">
          <mxGeometry x="550" y="500" width="140" height="70" as="geometry" />
        </mxCell>
        <mxCell id="HGiOl-FqE3d1iQW6nQIO-13" value="Enter Item Quantity" style="ellipse;whiteSpace=wrap;html=1;" vertex="1" parent="1">
          <mxGeometry x="370" y="960" width="140" height="70" as="geometry" />
        </mxCell>
        <mxCell id="HGiOl-FqE3d1iQW6nQIO-14" value="Enter Item Price" style="ellipse;whiteSpace=wrap;html=1;" vertex="1" parent="1">
          <mxGeometry x="270" y="860" width="140" height="70" as="geometry" />
        </mxCell>
        <mxCell id="HGiOl-FqE3d1iQW6nQIO-15" value="Display Purchase Order&amp;nbsp;" style="ellipse;whiteSpace=wrap;html=1;" vertex="1" parent="1">
          <mxGeometry x="355" y="1080" width="140" height="70" as="geometry" />
        </mxCell>
        <mxCell id="HGiOl-FqE3d1iQW6nQIO-16" value="Update Purchase Order" style="ellipse;whiteSpace=wrap;html=1;" vertex="1" parent="1">
          <mxGeometry x="285" y="1260" width="140" height="70" as="geometry" />
        </mxCell>
        <mxCell id="HGiOl-FqE3d1iQW6nQIO-17" value="Set Payment Terms, Delivery Conditions" style="ellipse;whiteSpace=wrap;html=1;" vertex="1" parent="1">
          <mxGeometry x="215" y="600" width="140" height="70" as="geometry" />
        </mxCell>
        <mxCell id="HGiOl-FqE3d1iQW6nQIO-18" value="Save Purchase Order" style="ellipse;whiteSpace=wrap;html=1;" vertex="1" parent="1">
          <mxGeometry x="470" y="1340" width="140" height="70" as="geometry" />
        </mxCell>
        <mxCell id="HGiOl-FqE3d1iQW6nQIO-19" value="Send Purchase Order" style="ellipse;whiteSpace=wrap;html=1;" vertex="1" parent="1">
          <mxGeometry x="470" y="1480" width="140" height="70" as="geometry" />
        </mxCell>
        <mxCell id="HGiOl-FqE3d1iQW6nQIO-20" value="Purchase Order Confirmation" style="ellipse;whiteSpace=wrap;html=1;" vertex="1" parent="1">
          <mxGeometry x="470" y="1620" width="140" height="70" as="geometry" />
        </mxCell>
        <mxCell id="HGiOl-FqE3d1iQW6nQIO-22" value="Create New Item" style="ellipse;whiteSpace=wrap;html=1;" vertex="1" parent="1">
          <mxGeometry x="550" y="740" width="140" height="70" as="geometry" />
        </mxCell>
        <mxCell id="HGiOl-FqE3d1iQW6nQIO-26" value="" style="endArrow=classic;html=1;rounded=0;exitX=0.5;exitY=0;exitDx=0;exitDy=0;entryX=0.5;entryY=1;entryDx=0;entryDy=0;dashed=1;" edge="1" parent="1" source="HGiOl-FqE3d1iQW6nQIO-5" target="HGiOl-FqE3d1iQW6nQIO-6">
          <mxGeometry width="50" height="50" relative="1" as="geometry">
            <mxPoint x="430" y="280" as="sourcePoint" />
            <mxPoint x="480" y="230" as="targetPoint" />
          </mxGeometry>
        </mxCell>
        <mxCell id="HGiOl-FqE3d1iQW6nQIO-27" value="&amp;lt;&amp;lt;includes&amp;gt;&amp;gt;" style="edgeLabel;html=1;align=center;verticalAlign=middle;resizable=0;points=[];" vertex="1" connectable="0" parent="HGiOl-FqE3d1iQW6nQIO-26">
          <mxGeometry x="-0.04" relative="1" as="geometry">
            <mxPoint as="offset" />
          </mxGeometry>
        </mxCell>
        <mxCell id="HGiOl-FqE3d1iQW6nQIO-29" value="" style="endArrow=classic;html=1;rounded=0;exitX=1;exitY=0;exitDx=0;exitDy=0;entryX=0;entryY=0.5;entryDx=0;entryDy=0;dashed=1;" edge="1" parent="1" source="HGiOl-FqE3d1iQW6nQIO-7" target="HGiOl-FqE3d1iQW6nQIO-11">
          <mxGeometry width="50" height="50" relative="1" as="geometry">
            <mxPoint x="280" y="650" as="sourcePoint" />
            <mxPoint x="330" y="600" as="targetPoint" />
          </mxGeometry>
        </mxCell>
        <mxCell id="HGiOl-FqE3d1iQW6nQIO-31" value="&amp;lt;&amp;lt;includes&amp;gt;&amp;gt;" style="edgeLabel;html=1;align=center;verticalAlign=middle;resizable=0;points=[];" vertex="1" connectable="0" parent="HGiOl-FqE3d1iQW6nQIO-29">
          <mxGeometry x="-0.1464" y="-2" relative="1" as="geometry">
            <mxPoint x="-1" as="offset" />
          </mxGeometry>
        </mxCell>
        <mxCell id="HGiOl-FqE3d1iQW6nQIO-30" value="" style="endArrow=classic;html=1;rounded=0;exitX=1;exitY=1;exitDx=0;exitDy=0;entryX=0;entryY=0.5;entryDx=0;entryDy=0;dashed=1;" edge="1" parent="1" source="HGiOl-FqE3d1iQW6nQIO-7" target="HGiOl-FqE3d1iQW6nQIO-12">
          <mxGeometry width="50" height="50" relative="1" as="geometry">
            <mxPoint x="280" y="650" as="sourcePoint" />
            <mxPoint x="330" y="600" as="targetPoint" />
          </mxGeometry>
        </mxCell>
        <mxCell id="HGiOl-FqE3d1iQW6nQIO-32" value="&amp;lt;&amp;lt;extends&amp;gt;&amp;gt;" style="edgeLabel;html=1;align=center;verticalAlign=middle;resizable=0;points=[];" vertex="1" connectable="0" parent="HGiOl-FqE3d1iQW6nQIO-30">
          <mxGeometry x="-0.1098" y="-3" relative="1" as="geometry">
            <mxPoint as="offset" />
          </mxGeometry>
        </mxCell>
        <mxCell id="HGiOl-FqE3d1iQW6nQIO-33" value="" style="endArrow=classic;html=1;rounded=0;exitX=1;exitY=0;exitDx=0;exitDy=0;entryX=0;entryY=0.5;entryDx=0;entryDy=0;dashed=1;" edge="1" parent="1" source="HGiOl-FqE3d1iQW6nQIO-10" target="HGiOl-FqE3d1iQW6nQIO-9">
          <mxGeometry width="50" height="50" relative="1" as="geometry">
            <mxPoint x="510" y="800" as="sourcePoint" />
            <mxPoint x="560" y="750" as="targetPoint" />
          </mxGeometry>
        </mxCell>
        <mxCell id="HGiOl-FqE3d1iQW6nQIO-35" value="&amp;lt;&amp;lt;includes&amp;gt;&amp;gt;" style="edgeLabel;html=1;align=center;verticalAlign=middle;resizable=0;points=[];" vertex="1" connectable="0" parent="HGiOl-FqE3d1iQW6nQIO-33">
          <mxGeometry x="0.0406" relative="1" as="geometry">
            <mxPoint as="offset" />
          </mxGeometry>
        </mxCell>
        <mxCell id="HGiOl-FqE3d1iQW6nQIO-34" value="" style="endArrow=classic;html=1;rounded=0;exitX=1;exitY=1;exitDx=0;exitDy=0;entryX=0;entryY=0.5;entryDx=0;entryDy=0;dashed=1;" edge="1" parent="1" source="HGiOl-FqE3d1iQW6nQIO-10" target="HGiOl-FqE3d1iQW6nQIO-22">
          <mxGeometry width="50" height="50" relative="1" as="geometry">
            <mxPoint x="510" y="800" as="sourcePoint" />
            <mxPoint x="560" y="750" as="targetPoint" />
          </mxGeometry>
        </mxCell>
        <mxCell id="HGiOl-FqE3d1iQW6nQIO-61" value="&amp;lt;&amp;lt;extends&amp;gt;&amp;gt;" style="edgeLabel;html=1;align=center;verticalAlign=middle;resizable=0;points=[];" vertex="1" connectable="0" parent="HGiOl-FqE3d1iQW6nQIO-34">
          <mxGeometry x="-0.0916" relative="1" as="geometry">
            <mxPoint as="offset" />
          </mxGeometry>
        </mxCell>
        <mxCell id="HGiOl-FqE3d1iQW6nQIO-37" value="" style="endArrow=classic;html=1;rounded=0;exitX=0.5;exitY=0;exitDx=0;exitDy=0;entryX=0;entryY=1;entryDx=0;entryDy=0;dashed=1;" edge="1" parent="1" source="HGiOl-FqE3d1iQW6nQIO-14" target="HGiOl-FqE3d1iQW6nQIO-10">
          <mxGeometry width="50" height="50" relative="1" as="geometry">
            <mxPoint x="510" y="930" as="sourcePoint" />
            <mxPoint x="560" y="880" as="targetPoint" />
          </mxGeometry>
        </mxCell>
        <mxCell id="HGiOl-FqE3d1iQW6nQIO-40" value="&amp;lt;&amp;lt;includes&amp;gt;&amp;gt;" style="edgeLabel;html=1;align=center;verticalAlign=middle;resizable=0;points=[];" vertex="1" connectable="0" parent="HGiOl-FqE3d1iQW6nQIO-37">
          <mxGeometry x="-0.0853" y="-1" relative="1" as="geometry">
            <mxPoint as="offset" />
          </mxGeometry>
        </mxCell>
        <mxCell id="HGiOl-FqE3d1iQW6nQIO-38" value="" style="endArrow=classic;html=1;rounded=0;exitX=0.5;exitY=0;exitDx=0;exitDy=0;entryX=0.5;entryY=1;entryDx=0;entryDy=0;dashed=1;" edge="1" parent="1" source="HGiOl-FqE3d1iQW6nQIO-13" target="HGiOl-FqE3d1iQW6nQIO-10">
          <mxGeometry width="50" height="50" relative="1" as="geometry">
            <mxPoint x="510" y="960" as="sourcePoint" />
            <mxPoint x="560" y="910" as="targetPoint" />
          </mxGeometry>
        </mxCell>
        <mxCell id="HGiOl-FqE3d1iQW6nQIO-39" value="&amp;lt;&amp;lt;includes&amp;gt;&amp;gt;" style="edgeLabel;html=1;align=center;verticalAlign=middle;resizable=0;points=[];" vertex="1" connectable="0" parent="HGiOl-FqE3d1iQW6nQIO-38">
          <mxGeometry x="-0.0164" relative="1" as="geometry">
            <mxPoint as="offset" />
          </mxGeometry>
        </mxCell>
        <mxCell id="HGiOl-FqE3d1iQW6nQIO-41" value="Notify Confirmation" style="ellipse;whiteSpace=wrap;html=1;" vertex="1" parent="1">
          <mxGeometry x="240" y="1540" width="140" height="70" as="geometry" />
        </mxCell>
        <mxCell id="HGiOl-FqE3d1iQW6nQIO-42" value="Save as Draft" style="ellipse;whiteSpace=wrap;html=1;" vertex="1" parent="1">
          <mxGeometry x="130" y="1080" width="140" height="70" as="geometry" />
        </mxCell>
        <mxCell id="HGiOl-FqE3d1iQW6nQIO-43" value="" style="endArrow=classic;html=1;rounded=0;exitX=0.5;exitY=0;exitDx=0;exitDy=0;entryX=0;entryY=1;entryDx=0;entryDy=0;dashed=1;" edge="1" parent="1" source="HGiOl-FqE3d1iQW6nQIO-16" target="HGiOl-FqE3d1iQW6nQIO-15">
          <mxGeometry width="50" height="50" relative="1" as="geometry">
            <mxPoint x="360" y="1550" as="sourcePoint" />
            <mxPoint x="410" y="1500" as="targetPoint" />
          </mxGeometry>
        </mxCell>
        <mxCell id="HGiOl-FqE3d1iQW6nQIO-44" value="&amp;lt;&amp;lt;includes&amp;gt;&amp;gt;" style="edgeLabel;html=1;align=center;verticalAlign=middle;resizable=0;points=[];" vertex="1" connectable="0" parent="HGiOl-FqE3d1iQW6nQIO-43">
          <mxGeometry x="-0.0567" y="3" relative="1" as="geometry">
            <mxPoint y="-1" as="offset" />
          </mxGeometry>
        </mxCell>
        <mxCell id="HGiOl-FqE3d1iQW6nQIO-45" value="" style="endArrow=classic;html=1;rounded=0;exitX=0.5;exitY=0;exitDx=0;exitDy=0;entryX=1;entryY=1;entryDx=0;entryDy=0;dashed=1;" edge="1" parent="1" source="HGiOl-FqE3d1iQW6nQIO-18" target="HGiOl-FqE3d1iQW6nQIO-15">
          <mxGeometry width="50" height="50" relative="1" as="geometry">
            <mxPoint x="360" y="1700" as="sourcePoint" />
            <mxPoint x="410" y="1650" as="targetPoint" />
          </mxGeometry>
        </mxCell>
        <mxCell id="HGiOl-FqE3d1iQW6nQIO-46" value="&amp;lt;&amp;lt;includes&amp;gt;&amp;gt;" style="edgeLabel;html=1;align=center;verticalAlign=middle;resizable=0;points=[];" vertex="1" connectable="0" parent="HGiOl-FqE3d1iQW6nQIO-45">
          <mxGeometry x="0.0156" y="-1" relative="1" as="geometry">
            <mxPoint as="offset" />
          </mxGeometry>
        </mxCell>
        <mxCell id="HGiOl-FqE3d1iQW6nQIO-47" value="" style="endArrow=classic;html=1;rounded=0;entryX=0;entryY=1;entryDx=0;entryDy=0;dashed=1;" edge="1" parent="1" source="HGiOl-FqE3d1iQW6nQIO-42" target="HGiOl-FqE3d1iQW6nQIO-5">
          <mxGeometry width="50" height="50" relative="1" as="geometry">
            <mxPoint x="360" y="670" as="sourcePoint" />
            <mxPoint x="410" y="620" as="targetPoint" />
          </mxGeometry>
        </mxCell>
        <mxCell id="HGiOl-FqE3d1iQW6nQIO-54" value="&amp;lt;&amp;lt;includes&amp;gt;&amp;gt;" style="edgeLabel;html=1;align=center;verticalAlign=middle;resizable=0;points=[];" vertex="1" connectable="0" parent="HGiOl-FqE3d1iQW6nQIO-47">
          <mxGeometry x="0.0155" y="4" relative="1" as="geometry">
            <mxPoint as="offset" />
          </mxGeometry>
        </mxCell>
        <mxCell id="HGiOl-FqE3d1iQW6nQIO-49" value="" style="endArrow=classic;html=1;rounded=0;exitX=1;exitY=0.5;exitDx=0;exitDy=0;entryX=0.5;entryY=0;entryDx=0;entryDy=0;dashed=1;" edge="1" parent="1" source="HGiOl-FqE3d1iQW6nQIO-5" target="HGiOl-FqE3d1iQW6nQIO-7">
          <mxGeometry width="50" height="50" relative="1" as="geometry">
            <mxPoint x="470" y="670" as="sourcePoint" />
            <mxPoint x="520" y="620" as="targetPoint" />
          </mxGeometry>
        </mxCell>
        <mxCell id="HGiOl-FqE3d1iQW6nQIO-51" value="&amp;lt;&amp;lt;includes&amp;gt;&amp;gt;" style="edgeLabel;html=1;align=center;verticalAlign=middle;resizable=0;points=[];" vertex="1" connectable="0" parent="HGiOl-FqE3d1iQW6nQIO-49">
          <mxGeometry x="-0.1172" y="1" relative="1" as="geometry">
            <mxPoint as="offset" />
          </mxGeometry>
        </mxCell>
        <mxCell id="HGiOl-FqE3d1iQW6nQIO-50" value="" style="endArrow=classic;html=1;rounded=0;exitX=1;exitY=1;exitDx=0;exitDy=0;entryX=0.5;entryY=0;entryDx=0;entryDy=0;dashed=1;" edge="1" parent="1" source="HGiOl-FqE3d1iQW6nQIO-5" target="HGiOl-FqE3d1iQW6nQIO-10">
          <mxGeometry width="50" height="50" relative="1" as="geometry">
            <mxPoint x="470" y="710" as="sourcePoint" />
            <mxPoint x="520" y="660" as="targetPoint" />
          </mxGeometry>
        </mxCell>
        <mxCell id="HGiOl-FqE3d1iQW6nQIO-52" value="&amp;lt;&amp;lt;includes&amp;gt;&amp;gt;" style="edgeLabel;html=1;align=center;verticalAlign=middle;resizable=0;points=[];" vertex="1" connectable="0" parent="HGiOl-FqE3d1iQW6nQIO-50">
          <mxGeometry x="-0.0735" y="-4" relative="1" as="geometry">
            <mxPoint as="offset" />
          </mxGeometry>
        </mxCell>
        <mxCell id="HGiOl-FqE3d1iQW6nQIO-55" value="" style="endArrow=classic;html=1;rounded=0;exitX=0.5;exitY=1;exitDx=0;exitDy=0;entryX=0.5;entryY=0;entryDx=0;entryDy=0;dashed=1;" edge="1" parent="1" source="HGiOl-FqE3d1iQW6nQIO-5" target="HGiOl-FqE3d1iQW6nQIO-17">
          <mxGeometry width="50" height="50" relative="1" as="geometry">
            <mxPoint x="500" y="630" as="sourcePoint" />
            <mxPoint x="550" y="580" as="targetPoint" />
          </mxGeometry>
        </mxCell>
        <mxCell id="HGiOl-FqE3d1iQW6nQIO-56" value="&amp;lt;&amp;lt;includes&amp;gt;&amp;gt;" style="edgeLabel;html=1;align=center;verticalAlign=middle;resizable=0;points=[];" vertex="1" connectable="0" parent="HGiOl-FqE3d1iQW6nQIO-55">
          <mxGeometry x="-0.065" y="4" relative="1" as="geometry">
            <mxPoint as="offset" />
          </mxGeometry>
        </mxCell>
        <mxCell id="HGiOl-FqE3d1iQW6nQIO-57" value="" style="endArrow=none;html=1;rounded=0;exitX=1;exitY=0.5;exitDx=0;exitDy=0;entryX=0;entryY=0.5;entryDx=0;entryDy=0;dashed=1;startArrow=classic;startFill=1;" edge="1" parent="1" source="HGiOl-FqE3d1iQW6nQIO-42" target="HGiOl-FqE3d1iQW6nQIO-15">
          <mxGeometry width="50" height="50" relative="1" as="geometry">
            <mxPoint x="520" y="1300" as="sourcePoint" />
            <mxPoint x="570" y="1250" as="targetPoint" />
          </mxGeometry>
        </mxCell>
        <mxCell id="HGiOl-FqE3d1iQW6nQIO-58" value="&amp;lt;&amp;lt;includes&amp;gt;&amp;gt;" style="edgeLabel;html=1;align=center;verticalAlign=middle;resizable=0;points=[];" vertex="1" connectable="0" parent="HGiOl-FqE3d1iQW6nQIO-57">
          <mxGeometry x="0.2597" y="-2" relative="1" as="geometry">
            <mxPoint as="offset" />
          </mxGeometry>
        </mxCell>
        <mxCell id="HGiOl-FqE3d1iQW6nQIO-59" value="" style="endArrow=classic;html=1;rounded=0;exitX=0.5;exitY=0;exitDx=0;exitDy=0;dashed=1;" edge="1" parent="1" source="HGiOl-FqE3d1iQW6nQIO-19" target="HGiOl-FqE3d1iQW6nQIO-18">
          <mxGeometry width="50" height="50" relative="1" as="geometry">
            <mxPoint x="520" y="1620" as="sourcePoint" />
            <mxPoint x="570" y="1570" as="targetPoint" />
          </mxGeometry>
        </mxCell>
        <mxCell id="HGiOl-FqE3d1iQW6nQIO-62" value="&amp;lt;&amp;lt;includes&amp;gt;&amp;gt;" style="edgeLabel;html=1;align=center;verticalAlign=middle;resizable=0;points=[];" vertex="1" connectable="0" parent="HGiOl-FqE3d1iQW6nQIO-59">
          <mxGeometry x="-0.0229" y="-1" relative="1" as="geometry">
            <mxPoint as="offset" />
          </mxGeometry>
        </mxCell>
        <mxCell id="HGiOl-FqE3d1iQW6nQIO-63" value="" style="endArrow=classic;html=1;rounded=0;exitX=0.5;exitY=0;exitDx=0;exitDy=0;entryX=0.5;entryY=1;entryDx=0;entryDy=0;dashed=1;" edge="1" parent="1" source="HGiOl-FqE3d1iQW6nQIO-20" target="HGiOl-FqE3d1iQW6nQIO-19">
          <mxGeometry width="50" height="50" relative="1" as="geometry">
            <mxPoint x="510" y="1590" as="sourcePoint" />
            <mxPoint x="560" y="1540" as="targetPoint" />
          </mxGeometry>
        </mxCell>
        <mxCell id="HGiOl-FqE3d1iQW6nQIO-64" value="&amp;lt;&amp;lt;includes&amp;gt;&amp;gt;" style="edgeLabel;html=1;align=center;verticalAlign=middle;resizable=0;points=[];" vertex="1" connectable="0" parent="HGiOl-FqE3d1iQW6nQIO-63">
          <mxGeometry x="0.0343" relative="1" as="geometry">
            <mxPoint as="offset" />
          </mxGeometry>
        </mxCell>
        <mxCell id="HGiOl-FqE3d1iQW6nQIO-69" value="" style="endArrow=none;html=1;rounded=0;entryX=0;entryY=0.5;entryDx=0;entryDy=0;exitX=0.5;exitY=0.5;exitDx=0;exitDy=0;exitPerimeter=0;" edge="1" parent="1" source="HGiOl-FqE3d1iQW6nQIO-4" target="HGiOl-FqE3d1iQW6nQIO-20">
          <mxGeometry width="50" height="50" relative="1" as="geometry">
            <mxPoint x="600" y="1610" as="sourcePoint" />
            <mxPoint x="650" y="1560" as="targetPoint" />
          </mxGeometry>
        </mxCell>
        <mxCell id="HGiOl-FqE3d1iQW6nQIO-70" value="" style="endArrow=none;html=1;rounded=0;exitX=0.5;exitY=0;exitDx=0;exitDy=0;exitPerimeter=0;entryX=0;entryY=0.5;entryDx=0;entryDy=0;" edge="1" parent="1" source="HGiOl-FqE3d1iQW6nQIO-1" target="HGiOl-FqE3d1iQW6nQIO-5">
          <mxGeometry width="50" height="50" relative="1" as="geometry">
            <mxPoint x="600" y="850" as="sourcePoint" />
            <mxPoint x="650" y="800" as="targetPoint" />
          </mxGeometry>
        </mxCell>
        <mxCell id="HGiOl-FqE3d1iQW6nQIO-72" value="" style="endArrow=none;html=1;rounded=0;exitX=1;exitY=1;exitDx=0;exitDy=0;exitPerimeter=0;entryX=0;entryY=0.5;entryDx=0;entryDy=0;edgeStyle=orthogonalEdgeStyle;" edge="1" parent="1" source="HGiOl-FqE3d1iQW6nQIO-1" target="HGiOl-FqE3d1iQW6nQIO-42">
          <mxGeometry width="50" height="50" relative="1" as="geometry">
            <mxPoint x="600" y="1040" as="sourcePoint" />
            <mxPoint x="650" y="990" as="targetPoint" />
            <Array as="points">
              <mxPoint y="830" />
              <mxPoint y="1115" />
            </Array>
          </mxGeometry>
        </mxCell>
        <mxCell id="HGiOl-FqE3d1iQW6nQIO-73" value="" style="endArrow=none;html=1;rounded=0;exitX=0;exitY=0.5;exitDx=0;exitDy=0;entryX=0;entryY=1;entryDx=0;entryDy=0;entryPerimeter=0;edgeStyle=orthogonalEdgeStyle;" edge="1" parent="1" source="HGiOl-FqE3d1iQW6nQIO-41" target="HGiOl-FqE3d1iQW6nQIO-1">
          <mxGeometry width="50" height="50" relative="1" as="geometry">
            <mxPoint x="600" y="1290" as="sourcePoint" />
            <mxPoint x="650" y="1240" as="targetPoint" />
            <Array as="points">
              <mxPoint x="-90" y="1575" />
            </Array>
          </mxGeometry>
        </mxCell>
        <mxCell id="HGiOl-FqE3d1iQW6nQIO-74" value="" style="endArrow=none;html=1;rounded=0;exitX=0;exitY=0.5;exitDx=0;exitDy=0;entryX=0;entryY=1;entryDx=0;entryDy=0;entryPerimeter=0;edgeStyle=orthogonalEdgeStyle;" edge="1" parent="1" source="HGiOl-FqE3d1iQW6nQIO-18" target="HGiOl-FqE3d1iQW6nQIO-1">
          <mxGeometry width="50" height="50" relative="1" as="geometry">
            <mxPoint x="600" y="1260" as="sourcePoint" />
            <mxPoint x="650" y="1210" as="targetPoint" />
            <Array as="points">
              <mxPoint x="-50" y="1375" />
              <mxPoint x="-50" y="830" />
            </Array>
          </mxGeometry>
        </mxCell>
        <mxCell id="HGiOl-FqE3d1iQW6nQIO-75" value="" style="endArrow=none;html=1;rounded=0;exitX=0;exitY=0.5;exitDx=0;exitDy=0;edgeStyle=orthogonalEdgeStyle;" edge="1" parent="1" source="HGiOl-FqE3d1iQW6nQIO-19">
          <mxGeometry width="50" height="50" relative="1" as="geometry">
            <mxPoint x="600" y="1300" as="sourcePoint" />
            <mxPoint x="-90" y="840" as="targetPoint" />
            <Array as="points">
              <mxPoint x="-70" y="1515" />
              <mxPoint x="-70" y="840" />
            </Array>
          </mxGeometry>
        </mxCell>
        <mxCell id="HGiOl-FqE3d1iQW6nQIO-76" value="" style="endArrow=none;html=1;rounded=0;exitX=0;exitY=0.5;exitDx=0;exitDy=0;entryX=1;entryY=1;entryDx=0;entryDy=0;entryPerimeter=0;edgeStyle=orthogonalEdgeStyle;" edge="1" parent="1" source="HGiOl-FqE3d1iQW6nQIO-16" target="HGiOl-FqE3d1iQW6nQIO-1">
          <mxGeometry width="50" height="50" relative="1" as="geometry">
            <mxPoint x="600" y="1290" as="sourcePoint" />
            <mxPoint x="650" y="1240" as="targetPoint" />
            <Array as="points">
              <mxPoint x="-30" y="1295" />
              <mxPoint x="-30" y="830" />
            </Array>
          </mxGeometry>
        </mxCell>
        <mxCell id="HGiOl-FqE3d1iQW6nQIO-77" value="" style="endArrow=classic;html=1;rounded=0;exitX=1;exitY=0.5;exitDx=0;exitDy=0;entryX=0;entryY=0;entryDx=0;entryDy=0;dashed=1;" edge="1" parent="1" source="HGiOl-FqE3d1iQW6nQIO-41" target="HGiOl-FqE3d1iQW6nQIO-20">
          <mxGeometry width="50" height="50" relative="1" as="geometry">
            <mxPoint x="600" y="1580" as="sourcePoint" />
            <mxPoint x="650" y="1530" as="targetPoint" />
          </mxGeometry>
        </mxCell>
        <mxCell id="HGiOl-FqE3d1iQW6nQIO-78" value="&amp;lt;&amp;lt;includes&amp;gt;&amp;gt;" style="edgeLabel;html=1;align=center;verticalAlign=middle;resizable=0;points=[];" vertex="1" connectable="0" parent="HGiOl-FqE3d1iQW6nQIO-77">
          <mxGeometry x="-0.0733" y="3" relative="1" as="geometry">
            <mxPoint x="1" as="offset" />
          </mxGeometry>
        </mxCell>
      </root>
    </mxGraphModel>
  </diagram>
</mxfile>
